<svg width="22" height="25" viewBox="0 0 22 25" fill="none" xmlns="http://www.w3.org/2000/svg">
<g clip-path="url(#clip0_7_23)" filter="url(#filter0_d_7_23)">
<path d="M11.19 16.967C11.0668 17.0109 10.9322 17.0109 10.809 16.967C3.829 14.498 3.938 8.64901 4.018 4.37701C4.026 3.91801 4.034 3.48401 4.034 3.06501C4.03267 2.9087 4.09342 2.75825 4.20291 2.6467C4.31241 2.53514 4.4617 2.47159 4.618 2.47001C7.112 2.47001 9.01 1.73801 10.593 0.16801C10.6463 0.114523 10.7097 0.0720851 10.7794 0.043129C10.8492 0.0141728 10.924 -0.000732422 10.9995 -0.000732422C11.075 -0.000732422 11.1498 0.0141728 11.2196 0.043129C11.2893 0.0720851 11.3527 0.114523 11.406 0.16801C12.989 1.73801 14.888 2.47001 17.383 2.47001C17.5391 2.47186 17.6882 2.53552 17.7974 2.64705C17.9067 2.75858 17.9673 2.90887 17.966 3.06501C17.966 3.48501 17.974 3.91801 17.983 4.37701C18.063 8.64801 18.172 14.498 11.191 16.967H11.19ZM16.817 4.40001C16.812 4.14201 16.807 3.89201 16.805 3.64801C14.467 3.54701 12.599 2.82501 11 1.40301C9.4 2.82501 7.533 3.54701 5.197 3.64801L5.184 4.40001C5.104 8.69401 5.014 13.555 11 15.774C16.987 13.554 16.897 8.69401 16.816 4.40001H16.817ZM13.833 6.43301C13.9426 6.54575 14.0039 6.69678 14.0039 6.85401C14.0039 7.01124 13.9426 7.16227 13.833 7.27501L10.606 10.567C10.5525 10.6223 10.4884 10.6663 10.4175 10.6963C10.3467 10.7264 10.2705 10.7419 10.1935 10.7419C10.1165 10.7419 10.0404 10.7264 9.96949 10.6963C9.89862 10.6663 9.83452 10.6223 9.781 10.567L8.167 8.92001C8.05718 8.80739 7.99571 8.65631 7.99571 8.49901C7.99571 8.3417 8.05718 8.19063 8.167 8.07801C8.22059 8.02282 8.28472 7.97895 8.35557 7.94899C8.42643 7.91903 8.50257 7.9036 8.5795 7.9036C8.65643 7.9036 8.73258 7.91903 8.80343 7.94899C8.87429 7.97895 8.93841 8.02282 8.992 8.07801L10.193 9.30401L13.008 6.43201C13.0616 6.37682 13.1257 6.33295 13.1966 6.30299C13.2674 6.27303 13.3436 6.2576 13.4205 6.2576C13.4974 6.2576 13.5736 6.27303 13.6444 6.30299C13.7153 6.33295 13.7794 6.37682 13.833 6.43201V6.43301Z" fill="#787878"/>
</g>
<defs>
<filter id="filter0_d_7_23" x="0" y="0" width="22" height="25" filterUnits="userSpaceOnUse" color-interpolation-filters="sRGB">
<feFlood flood-opacity="0" result="BackgroundImageFix"/>
<feColorMatrix in="SourceAlpha" type="matrix" values="0 0 0 0 0 0 0 0 0 0 0 0 0 0 0 0 0 0 127 0" result="hardAlpha"/>
<feOffset dy="4"/>
<feGaussianBlur stdDeviation="2"/>
<feComposite in2="hardAlpha" operator="out"/>
<feColorMatrix type="matrix" values="0 0 0 0 0 0 0 0 0 0 0 0 0 0 0 0 0 0 0.25 0"/>
<feBlend mode="normal" in2="BackgroundImageFix" result="effect1_dropShadow_7_23"/>
<feBlend mode="normal" in="SourceGraphic" in2="effect1_dropShadow_7_23" result="shape"/>
</filter>
<clipPath id="clip0_7_23">
<rect width="14" height="17" fill="white" transform="translate(4)"/>
</clipPath>
</defs>
</svg>
